<svg width="123" height="123" viewBox="0 0 123 123" fill="none" xmlns="http://www.w3.org/2000/svg">
<rect width="123" height="123" rx="15" fill="white"/>
<path d="M48.9178 82.5C48.513 80.2628 46.7232 78.9418 44.5286 78.9418C41.7374 78.9418 39.7132 81.0938 39.7132 84.5455C39.7132 87.9972 41.7374 90.1491 44.5286 90.1491C46.7232 90.1491 48.513 88.8281 48.9178 86.5909H47.5968C47.2772 88.1037 45.9775 88.9134 44.5286 88.9134C42.5471 88.9134 40.9917 87.3793 40.9917 84.5455C40.9917 81.7116 42.5471 80.1776 44.5286 80.1776C45.9775 80.1776 47.2772 80.9872 47.5968 82.5H48.9178ZM51.0525 90H54.9942C57.5724 90 58.6377 88.7429 58.6377 87.1023C58.6377 85.3764 57.4445 84.4389 56.4431 84.375V84.2685C57.3806 84.0128 58.2116 83.3949 58.2116 81.9886C58.2116 80.3906 57.1462 79.0909 54.8664 79.0909H51.0525V90ZM52.3735 88.8281V85.0355H55.0582C56.4857 85.0355 57.3806 85.9943 57.3806 87.1023C57.3806 88.0611 56.7201 88.8281 54.9942 88.8281H52.3735ZM52.3735 83.8849V80.2628H54.8664C56.3153 80.2628 56.9545 81.0298 56.9545 81.9886C56.9545 83.1392 56.017 83.8849 54.8238 83.8849H52.3735ZM64.1748 90C67.4987 90 69.3737 87.9332 69.3737 84.5241C69.3737 81.1364 67.4987 79.0909 64.324 79.0909H60.8083V90H64.1748ZM62.1294 88.8281V80.2628H64.2387C66.7955 80.2628 68.0953 81.8821 68.0953 84.5241C68.0953 87.1875 66.7955 88.8281 64.0896 88.8281H62.1294ZM80.368 82.5C79.9632 80.2628 78.1734 78.9418 75.9788 78.9418C73.1876 78.9418 71.1634 81.0938 71.1634 84.5455C71.1634 87.9972 73.1876 90.1491 75.9788 90.1491C78.1734 90.1491 79.9632 88.8281 80.368 86.5909H79.047C78.7274 88.1037 77.4276 88.9134 75.9788 88.9134C73.9972 88.9134 72.4419 87.3793 72.4419 84.5455C72.4419 81.7116 73.9972 80.1776 75.9788 80.1776C77.4276 80.1776 78.7274 80.9872 79.047 82.5H80.368ZM26.7873 108H33.4564V106.828H28.1084V103.121H33.0302V101.949H28.1084V98.2628H33.3711V97.0909H26.7873V108ZM36.5192 99.8182H35.0704L37.6698 103.909L35.0704 108H36.5192L38.4794 104.825L40.4397 108H41.8885L39.2465 103.909L41.8885 99.8182H40.4397L38.4794 103.163L36.5192 99.8182ZM46.6693 108.17C48.4803 108.17 49.6735 107.062 49.8866 105.614H48.6295C48.3951 106.509 47.6494 107.041 46.6693 107.041C45.1778 107.041 44.219 105.805 44.219 103.909C44.219 102.055 45.1991 100.841 46.6693 100.841C47.7772 100.841 48.4377 101.523 48.6295 102.268H49.8866C49.6735 100.734 48.3738 99.7116 46.6479 99.7116C44.432 99.7116 42.9619 101.459 42.9619 103.952C42.9619 106.402 44.3681 108.17 46.6693 108.17ZM52.9814 103.078C52.9814 101.651 53.8923 100.841 55.1334 100.841C56.3159 100.841 57.0297 101.587 57.0297 102.886V108H58.2868V102.801C58.2868 100.697 57.1682 99.7116 55.4956 99.7116C54.2065 99.7116 53.4715 100.25 53.0879 101.097H52.9814V97.0909H51.7243V108H52.9814V103.078ZM62.9943 108.192C64.4218 108.192 65.1676 107.425 65.4233 106.892H65.4872V108H66.7443V102.609C66.7443 100.01 64.7627 99.7116 63.7187 99.7116C62.4829 99.7116 61.0767 100.138 60.4375 101.629L61.6306 102.055C61.9076 101.459 62.5628 100.82 63.7613 100.82C64.9172 100.82 65.4872 101.432 65.4872 102.482V102.524C65.4872 103.131 64.8693 103.078 63.3778 103.27C61.8597 103.467 60.2031 103.803 60.2031 105.678C60.2031 107.276 61.4389 108.192 62.9943 108.192ZM63.186 107.062C62.1846 107.062 61.4602 106.615 61.4602 105.741C61.4602 104.783 62.3338 104.484 63.3139 104.357C63.8465 104.293 65.2741 104.143 65.4872 103.888V105.038C65.4872 106.061 64.6775 107.062 63.186 107.062ZM70.2959 103.078C70.2959 101.651 71.1801 100.841 72.3839 100.841C73.5505 100.841 74.2589 101.603 74.2589 102.886V108H75.516V102.801C75.516 100.713 74.4027 99.7116 72.7461 99.7116C71.5103 99.7116 70.7433 100.266 70.3598 101.097H70.2532V99.8182H69.0388V108H70.2959V103.078ZM81.1157 111.239C83.076 111.239 84.6527 110.344 84.6527 108.234V99.8182H83.4382V101.118H83.3103C83.0333 100.692 82.522 99.7116 80.924 99.7116C78.8572 99.7116 77.4296 101.352 77.4296 103.866C77.4296 106.423 78.9211 107.872 80.9027 107.872C82.5007 107.872 83.012 106.935 83.289 106.487H83.3956V108.149C83.3956 109.513 82.4367 110.131 81.1157 110.131C79.6296 110.131 79.1076 109.348 78.772 108.895L77.7706 109.598C78.2819 110.456 79.2887 111.239 81.1157 111.239ZM81.0731 106.743C79.4964 106.743 78.6867 105.55 78.6867 103.845C78.6867 102.183 79.4751 100.841 81.0731 100.841C82.6072 100.841 83.4169 102.077 83.4169 103.845C83.4169 105.656 82.5859 106.743 81.0731 106.743ZM90.3842 108.17C92.0461 108.17 93.2606 107.339 93.6441 106.104L92.4296 105.763C92.11 106.615 91.3696 107.041 90.3842 107.041C88.9087 107.041 87.8913 106.088 87.8327 104.335H93.772V103.803C93.772 100.756 91.9609 99.7116 90.2563 99.7116C88.0404 99.7116 86.5703 101.459 86.5703 103.973C86.5703 106.487 88.0191 108.17 90.3842 108.17ZM87.8327 103.249C87.9179 101.975 88.8181 100.841 90.2563 100.841C91.62 100.841 92.4936 101.864 92.4936 103.249H87.8327Z" fill="#3A3A3A"/>
<path d="M42 40.125C42 41.2188 42.7812 42 43.875 42H72V45.75C72 47.4688 73.9531 48.25 75.125 47.0781L81.375 40.8281C82.1562 40.125 82.1562 38.9531 81.375 38.25L75.125 32C73.9531 30.75 72 31.6094 72 33.25V37H43.875C42.7812 37 42 37.8594 42 38.875V40.125ZM80.125 52H52V48.25C52 46.6094 49.9688 45.75 48.7969 47L42.5469 53.25C41.7656 53.9531 41.7656 55.125 42.5469 55.8281L48.7969 62.0781C49.9688 63.25 52 62.4688 52 60.75V57H80.125C81.1406 57 82 56.2188 82 55.125V53.875C82 52.8594 81.1406 52 80.125 52Z" fill="#1E1E99"/>
</svg>
