<svg width="41" height="32" viewBox="0 0 41 32" fill="none" xmlns="http://www.w3.org/2000/svg">
<path d="M1 9.125C1 10.2188 1.78125 11 2.875 11H31V14.75C31 16.4688 32.9531 17.25 34.125 16.0781L40.375 9.82812C41.1562 9.125 41.1562 7.95312 40.375 7.25L34.125 1C32.9531 -0.25 31 0.609375 31 2.25V6H2.875C1.78125 6 1 6.85938 1 7.875V9.125ZM39.125 21H11V17.25C11 15.6094 8.96875 14.75 7.79688 16L1.54688 22.25C0.765625 22.9531 0.765625 24.125 1.54688 24.8281L7.79688 31.0781C8.96875 32.25 11 31.4688 11 29.75V26H39.125C40.1406 26 41 25.2188 41 24.125V22.875C41 21.8594 40.1406 21 39.125 21Z" fill="#1E1E99"/>
</svg>
