<svg width="26" height="21" viewBox="0 0 26 21" fill="none" xmlns="http://www.w3.org/2000/svg">
<path d="M20.5312 11.5312C20.8125 11.25 20.8125 10.7812 20.5312 10.4688L15.2812 5.21875C14.7812 4.75 14 5.09375 14 5.75V8.75H9.75C9.3125 8.75 9 9.09375 9 9.5V12.5C9 12.9375 9.3125 13.25 9.75 13.25H14V16.25C14 16.9375 14.8125 17.25 15.2812 16.7812L20.5312 11.5312ZM11 16.625V15.375C11 15.1875 10.8125 15 10.625 15H8C7.4375 15 7 14.5625 7 14V8C7 7.46875 7.4375 7 8 7H10.625C10.8125 7 11 6.84375 11 6.625V5.375C11 5.1875 10.8125 5 10.625 5H8C6.34375 5 5 6.34375 5 8V14C5 15.6562 6.34375 17 8 17H10.625C10.8125 17 11 16.8438 11 16.625Z" fill="#C4C4C4"/>
</svg>
