<svg width="243" height="243" viewBox="0 0 243 243" fill="none" xmlns="http://www.w3.org/2000/svg">
<g filter="url(#filter0_d)">
<rect x="60" y="30" width="123" height="123" rx="15" fill="white"/>
<path d="M108.379 112.91C108.076 110.391 106.169 108.942 103.644 108.942C100.762 108.942 98.5621 110.977 98.5621 114.545C98.5621 118.104 100.725 120.149 103.644 120.149C106.44 120.149 108.129 118.29 108.379 116.282L106.046 116.271C105.828 117.438 104.911 118.109 103.681 118.109C102.024 118.109 100.9 116.879 100.9 114.545C100.9 112.276 102.008 110.982 103.697 110.982C104.959 110.982 105.87 111.712 106.046 112.91H108.379ZM110.033 120H114.694C117.144 120 118.449 118.722 118.449 116.985C118.449 115.371 117.293 114.396 116.052 114.338V114.231C117.187 113.975 118.023 113.171 118.023 111.887C118.023 110.252 116.809 109.091 114.401 109.091H110.033V120ZM112.34 118.114V115.217H114.273C115.381 115.217 116.068 115.856 116.068 116.756C116.068 117.576 115.509 118.114 114.22 118.114H112.34ZM112.34 113.656V110.955H114.092C115.115 110.955 115.695 111.483 115.695 112.271C115.695 113.134 114.992 113.656 114.049 113.656H112.34ZM123.817 120C127.141 120 129.155 117.944 129.155 114.535C129.155 111.136 127.141 109.091 123.849 109.091H119.95V120H123.817ZM122.257 118.024V111.067H123.727C125.772 111.067 126.854 112.111 126.854 114.535C126.854 116.969 125.772 118.024 123.721 118.024H122.257ZM140.489 112.91C140.185 110.391 138.278 108.942 135.753 108.942C132.871 108.942 130.671 110.977 130.671 114.545C130.671 118.104 132.834 120.149 135.753 120.149C138.55 120.149 140.238 118.29 140.489 116.282L138.155 116.271C137.937 117.438 137.021 118.109 135.79 118.109C134.134 118.109 133.01 116.879 133.01 114.545C133.01 112.276 134.118 110.982 135.806 110.982C137.069 110.982 137.98 111.712 138.155 112.91H140.489ZM84.3764 139H91.7485V137.098H86.6828V134.494H91.349V132.592H86.6828V129.993H91.7272V128.091H84.3764V139ZM95.4146 130.818H93.0709L95.4146 134.909L92.9857 139H95.3294L96.9168 136.172L98.5308 139H100.848L98.4136 134.909L100.784 130.818H98.4562L96.9168 133.679L95.4146 130.818ZM105.521 139.16C107.699 139.16 109.068 137.881 109.175 136.001H107.034C106.9 136.875 106.325 137.365 105.547 137.365C104.487 137.365 103.8 136.475 103.8 134.909C103.8 133.364 104.493 132.48 105.547 132.48C106.378 132.48 106.911 133.029 107.034 133.844H109.175C109.079 131.953 107.646 130.712 105.51 130.712C103.028 130.712 101.494 132.432 101.494 134.941C101.494 137.429 103.001 139.16 105.521 139.16ZM112.897 134.27C112.902 133.215 113.547 132.597 114.474 132.597C115.395 132.597 115.938 133.189 115.933 134.195V139H118.202V133.79C118.208 131.873 117.078 130.712 115.374 130.712C114.133 130.712 113.302 131.298 112.929 132.262H112.833V128.091H110.628V139H112.897V134.27ZM122.321 139.154C123.53 139.154 124.313 138.627 124.713 137.865H124.777V139H126.929V133.482C126.929 131.532 125.277 130.712 123.456 130.712C121.496 130.712 120.206 131.649 119.892 133.141L121.991 133.311C122.145 132.768 122.63 132.368 123.445 132.368C124.217 132.368 124.66 132.757 124.66 133.428V133.46C124.66 133.988 124.1 134.057 122.678 134.195C121.059 134.344 119.605 134.888 119.605 136.715C119.605 138.334 120.76 139.154 122.321 139.154ZM122.971 137.588C122.273 137.588 121.773 137.263 121.773 136.64C121.773 136.001 122.3 135.687 123.099 135.575C123.594 135.506 124.404 135.388 124.676 135.207V136.076C124.676 136.933 123.967 137.588 122.971 137.588ZM130.958 134.27C130.964 133.215 131.592 132.597 132.508 132.597C133.419 132.597 133.968 133.194 133.963 134.195V139H136.232V133.79C136.232 131.884 135.113 130.712 133.409 130.712C132.194 130.712 131.315 131.308 130.948 132.262H130.852V130.818H128.689V139H130.958V134.27ZM141.706 142.239C144.045 142.239 145.707 141.173 145.707 139.08V130.818H143.454V132.192H143.368C143.065 131.527 142.399 130.712 141.03 130.712C139.235 130.712 137.717 132.107 137.717 134.893C137.717 137.615 139.192 138.883 141.035 138.883C142.34 138.883 143.07 138.228 143.368 137.551H143.464V139.048C143.464 140.172 142.745 140.609 141.76 140.609C140.758 140.609 140.252 140.172 140.066 139.676L137.967 139.959C138.239 141.248 139.501 142.239 141.706 142.239ZM141.754 137.178C140.641 137.178 140.034 136.294 140.034 134.882C140.034 133.492 140.63 132.517 141.754 132.517C142.857 132.517 143.475 133.45 143.475 134.882C143.475 136.326 142.846 137.178 141.754 137.178ZM151.241 139.16C153.265 139.16 154.629 138.174 154.949 136.656L152.85 136.518C152.621 137.141 152.035 137.466 151.278 137.466C150.144 137.466 149.425 136.715 149.425 135.495V135.49H154.996V134.866C154.996 132.086 153.313 130.712 151.151 130.712C148.743 130.712 147.182 132.422 147.182 134.946C147.182 137.54 148.722 139.16 151.241 139.16ZM149.425 134.083C149.473 133.151 150.181 132.406 151.188 132.406C152.173 132.406 152.855 133.109 152.86 134.083H149.425Z" fill="#3A3A3A"/>
</g>
<path d="M102 70.125C102 71.2188 102.781 72 103.875 72H132V75.75C132 77.4688 133.953 78.25 135.125 77.0781L141.375 70.8281C142.156 70.125 142.156 68.9531 141.375 68.25L135.125 62C133.953 60.75 132 61.6094 132 63.25V67H103.875C102.781 67 102 67.8594 102 68.875V70.125ZM140.125 82H112V78.25C112 76.6094 109.969 75.75 108.797 77L102.547 83.25C101.766 83.9531 101.766 85.125 102.547 85.8281L108.797 92.0781C109.969 93.25 112 92.4688 112 90.75V87H140.125C141.141 87 142 86.2188 142 85.125V83.875C142 82.8594 141.141 82 140.125 82Z" fill="#1E1E99"/>
<defs>
<filter id="filter0_d" x="0" y="0" width="243" height="243" filterUnits="userSpaceOnUse" color-interpolation-filters="sRGB">
<feFlood flood-opacity="0" result="BackgroundImageFix"/>
<feColorMatrix in="SourceAlpha" type="matrix" values="0 0 0 0 0 0 0 0 0 0 0 0 0 0 0 0 0 0 127 0"/>
<feOffset dy="30"/>
<feGaussianBlur stdDeviation="30"/>
<feColorMatrix type="matrix" values="0 0 0 0 0.541176 0 0 0 0 0.584314 0 0 0 0 0.619608 0 0 0 0.2 0"/>
<feBlend mode="normal" in2="BackgroundImageFix" result="effect1_dropShadow"/>
<feBlend mode="normal" in="SourceGraphic" in2="effect1_dropShadow" result="shape"/>
</filter>
</defs>
</svg>
